<mxfile host="www.draw.io" modified="2020-01-08T03:03:28.102Z" agent="Mozilla/5.0 (Windows NT 10.0; Win64; x64) AppleWebKit/537.36 (KHTML, like Gecko) Chrome/79.0.3945.117 Safari/537.36" etag="FVTT1FzISNMTM_h9ZAZe" version="12.4.9" type="github">
  <diagram name="Page-1" id="c7488fd3-1785-93aa-aadb-54a6760d102a">
    <mxGraphModel dx="1733" dy="1037" grid="1" gridSize="10" guides="1" tooltips="1" connect="0" arrows="1" fold="1" page="1" pageScale="1" pageWidth="1100" pageHeight="850" background="#ffffff" math="0" shadow="0">
      <root>
        <mxCell id="0"/>
        <mxCell id="1" parent="0"/>
        <mxCell id="iXVOBdnZFfjjihutGFz4-9" value="" style="endArrow=none;html=1;fontFamily=Verdana;strokeWidth=2;" edge="1" parent="1">
          <mxGeometry width="50" height="50" relative="1" as="geometry">
            <mxPoint x="120" y="520" as="sourcePoint"/>
            <mxPoint x="120" y="40" as="targetPoint"/>
          </mxGeometry>
        </mxCell>
        <mxCell id="iXVOBdnZFfjjihutGFz4-10" value="" style="endArrow=none;html=1;fontFamily=Verdana;strokeWidth=2;" edge="1" parent="1">
          <mxGeometry width="50" height="50" relative="1" as="geometry">
            <mxPoint x="40" y="140" as="sourcePoint"/>
            <mxPoint x="1920" y="140" as="targetPoint"/>
          </mxGeometry>
        </mxCell>
        <mxCell id="iXVOBdnZFfjjihutGFz4-12" value="Team HW" style="text;html=1;align=center;verticalAlign=middle;resizable=0;points=[];autosize=1;fontFamily=Verdana;fontSize=15;direction=east;flipH=1;flipV=1;strokeWidth=2;" vertex="1" parent="1">
          <mxGeometry x="25" y="370" width="90" height="20" as="geometry"/>
        </mxCell>
        <mxCell id="iXVOBdnZFfjjihutGFz4-17" value="START" style="ellipse;whiteSpace=wrap;html=1;fontFamily=Verdana;strokeWidth=2;fontSize=15;" vertex="1" parent="1">
          <mxGeometry x="261" y="30" width="120" height="80" as="geometry"/>
        </mxCell>
        <mxCell id="iXVOBdnZFfjjihutGFz4-18" style="fontStyle=1;strokeColor=#003366;strokeWidth=2;html=1;fontFamily=Verdana;" edge="1" parent="1">
          <mxGeometry relative="1" as="geometry">
            <mxPoint x="320" y="114" as="sourcePoint"/>
            <mxPoint x="319.5" y="250" as="targetPoint"/>
          </mxGeometry>
        </mxCell>
        <mxCell id="iXVOBdnZFfjjihutGFz4-20" value="Đánh giá" style="shape=mxgraph.flowchart.decision;strokeWidth=2;gradientColor=none;gradientDirection=north;fontStyle=0;html=1;fontFamily=Verdana;fontSize=15;" vertex="1" parent="1">
          <mxGeometry x="460.21" y="230" width="179.79" height="100" as="geometry"/>
        </mxCell>
        <mxCell id="iXVOBdnZFfjjihutGFz4-24" value="&lt;span style=&quot;white-space: nowrap&quot;&gt;Đào tạo quy trình thiết kế&lt;br&gt;Tham gia dự án&lt;br&gt;(2-4 tuần)&lt;br&gt;&lt;/span&gt;" style="rounded=0;whiteSpace=wrap;html=1;fontFamily=Verdana;fontSize=15;strokeWidth=2;" vertex="1" parent="1">
          <mxGeometry x="720" y="240" width="220" height="80" as="geometry"/>
        </mxCell>
        <mxCell id="iXVOBdnZFfjjihutGFz4-27" value="" style="endArrow=classic;html=1;fontFamily=Verdana;strokeWidth=2;" edge="1" parent="1">
          <mxGeometry width="50" height="50" relative="1" as="geometry">
            <mxPoint x="400" y="280" as="sourcePoint"/>
            <mxPoint x="460" y="280" as="targetPoint"/>
          </mxGeometry>
        </mxCell>
        <mxCell id="iXVOBdnZFfjjihutGFz4-28" value="Tiếp nhận nhân viên" style="rounded=0;whiteSpace=wrap;html=1;fontFamily=Verdana;fontSize=15;strokeWidth=2;" vertex="1" parent="1">
          <mxGeometry x="242" y="250" width="160" height="80" as="geometry"/>
        </mxCell>
        <mxCell id="iXVOBdnZFfjjihutGFz4-29" value="Có KN" style="text;html=1;align=center;verticalAlign=middle;resizable=0;points=[];autosize=1;fontFamily=Verdana;strokeWidth=2;" vertex="1" parent="1">
          <mxGeometry x="645" y="250" width="50" height="20" as="geometry"/>
        </mxCell>
        <mxCell id="iXVOBdnZFfjjihutGFz4-32" value="" style="endArrow=none;html=1;entryX=0.5;entryY=1;entryDx=0;entryDy=0;entryPerimeter=0;fontFamily=Verdana;strokeWidth=2;" edge="1" parent="1" target="iXVOBdnZFfjjihutGFz4-20">
          <mxGeometry width="50" height="50" relative="1" as="geometry">
            <mxPoint x="550" y="430" as="sourcePoint"/>
            <mxPoint x="550" y="340" as="targetPoint"/>
          </mxGeometry>
        </mxCell>
        <mxCell id="iXVOBdnZFfjjihutGFz4-33" value="Fresher" style="text;html=1;align=center;verticalAlign=middle;resizable=0;points=[];autosize=1;fontFamily=Verdana;strokeWidth=2;" vertex="1" parent="1">
          <mxGeometry x="545" y="360" width="60" height="20" as="geometry"/>
        </mxCell>
        <mxCell id="iXVOBdnZFfjjihutGFz4-49" value="" style="endArrow=classic;html=1;fontFamily=Verdana;strokeWidth=2;" edge="1" parent="1">
          <mxGeometry width="50" height="50" relative="1" as="geometry">
            <mxPoint x="640" y="280" as="sourcePoint"/>
            <mxPoint x="720" y="280" as="targetPoint"/>
          </mxGeometry>
        </mxCell>
        <mxCell id="iXVOBdnZFfjjihutGFz4-68" value="" style="edgeStyle=orthogonalEdgeStyle;rounded=0;orthogonalLoop=1;jettySize=auto;html=1;fontSize=15;strokeWidth=2;" edge="1" parent="1" source="iXVOBdnZFfjjihutGFz4-52" target="iXVOBdnZFfjjihutGFz4-66">
          <mxGeometry relative="1" as="geometry"/>
        </mxCell>
        <mxCell id="iXVOBdnZFfjjihutGFz4-70" value="" style="edgeStyle=orthogonalEdgeStyle;rounded=0;orthogonalLoop=1;jettySize=auto;html=1;fontSize=15;strokeWidth=2;" edge="1" parent="1" source="iXVOBdnZFfjjihutGFz4-52" target="iXVOBdnZFfjjihutGFz4-67">
          <mxGeometry relative="1" as="geometry"/>
        </mxCell>
        <mxCell id="iXVOBdnZFfjjihutGFz4-52" value="Đánh giá" style="shape=mxgraph.flowchart.decision;strokeWidth=2;gradientColor=none;gradientDirection=north;fontStyle=0;html=1;fontFamily=Verdana;fontSize=15;" vertex="1" parent="1">
          <mxGeometry x="1300" y="230" width="179.79" height="100" as="geometry"/>
        </mxCell>
        <mxCell id="iXVOBdnZFfjjihutGFz4-63" value="" style="edgeStyle=orthogonalEdgeStyle;rounded=0;orthogonalLoop=1;jettySize=auto;html=1;fontSize=15;strokeWidth=2;" edge="1" parent="1" source="iXVOBdnZFfjjihutGFz4-53" target="iXVOBdnZFfjjihutGFz4-54">
          <mxGeometry relative="1" as="geometry"/>
        </mxCell>
        <mxCell id="iXVOBdnZFfjjihutGFz4-53" value="&lt;span style=&quot;white-space: nowrap&quot;&gt;Đào tạo cơ bản&lt;br&gt;(Kỹ năng Hàn, Sd Máy đo,..)&lt;br&gt;&lt;/span&gt;" style="rounded=0;whiteSpace=wrap;html=1;fontFamily=Verdana;fontSize=15;strokeWidth=2;" vertex="1" parent="1">
          <mxGeometry x="720" y="400" width="220" height="80" as="geometry"/>
        </mxCell>
        <mxCell id="iXVOBdnZFfjjihutGFz4-54" value="&lt;span style=&quot;white-space: nowrap&quot;&gt;Đào tạo nâng cao&lt;br&gt;(Quy trình TK, Phần mềm,&lt;br&gt;tham gia dự án )&lt;br&gt;&lt;/span&gt;" style="rounded=0;whiteSpace=wrap;html=1;fontFamily=Verdana;fontSize=15;strokeWidth=2;" vertex="1" parent="1">
          <mxGeometry x="999.89" y="400" width="220" height="80" as="geometry"/>
        </mxCell>
        <mxCell id="iXVOBdnZFfjjihutGFz4-59" value="" style="endArrow=classic;html=1;fontSize=15;strokeWidth=2;" edge="1" parent="1">
          <mxGeometry width="50" height="50" relative="1" as="geometry">
            <mxPoint x="940" y="280" as="sourcePoint"/>
            <mxPoint x="1300" y="280" as="targetPoint"/>
          </mxGeometry>
        </mxCell>
        <mxCell id="iXVOBdnZFfjjihutGFz4-64" value="" style="endArrow=classic;html=1;fontSize=15;strokeWidth=2;" edge="1" parent="1">
          <mxGeometry width="50" height="50" relative="1" as="geometry">
            <mxPoint x="1100" y="290" as="sourcePoint"/>
            <mxPoint x="1300" y="290" as="targetPoint"/>
          </mxGeometry>
        </mxCell>
        <mxCell id="iXVOBdnZFfjjihutGFz4-65" value="" style="endArrow=none;html=1;fontSize=15;exitX=0.455;exitY=0;exitDx=0;exitDy=0;exitPerimeter=0;strokeWidth=2;" edge="1" parent="1" source="iXVOBdnZFfjjihutGFz4-54">
          <mxGeometry width="50" height="50" relative="1" as="geometry">
            <mxPoint x="1050" y="340" as="sourcePoint"/>
            <mxPoint x="1100" y="290" as="targetPoint"/>
          </mxGeometry>
        </mxCell>
        <mxCell id="iXVOBdnZFfjjihutGFz4-66" value="&lt;span style=&quot;white-space: nowrap&quot;&gt;Được chính thức tham gia &lt;br&gt;vào dự án&lt;br&gt;&lt;/span&gt;" style="rounded=0;whiteSpace=wrap;html=1;fontFamily=Verdana;fontSize=15;strokeWidth=2;" vertex="1" parent="1">
          <mxGeometry x="1279.9" y="400" width="220" height="80" as="geometry"/>
        </mxCell>
        <mxCell id="iXVOBdnZFfjjihutGFz4-67" value="&lt;span style=&quot;white-space: nowrap&quot;&gt;Gia hạn đào tạo/&lt;br&gt;Đào tạo lại&lt;br&gt;&lt;/span&gt;" style="rounded=0;whiteSpace=wrap;html=1;fontFamily=Verdana;fontSize=15;strokeWidth=2;" vertex="1" parent="1">
          <mxGeometry x="1570" y="250" width="150" height="60" as="geometry"/>
        </mxCell>
        <mxCell id="iXVOBdnZFfjjihutGFz4-69" value="Đạt" style="text;html=1;align=center;verticalAlign=middle;resizable=0;points=[];autosize=1;fontSize=15;strokeWidth=2;" vertex="1" parent="1">
          <mxGeometry x="1402" y="355" width="40" height="20" as="geometry"/>
        </mxCell>
        <mxCell id="iXVOBdnZFfjjihutGFz4-71" value="Không đạt" style="text;html=1;align=center;verticalAlign=middle;resizable=0;points=[];autosize=1;fontSize=15;strokeWidth=2;" vertex="1" parent="1">
          <mxGeometry x="1479.79" y="250" width="80" height="20" as="geometry"/>
        </mxCell>
        <mxCell id="iXVOBdnZFfjjihutGFz4-72" value="" style="endArrow=classic;html=1;fontSize=15;strokeWidth=2;" edge="1" parent="1">
          <mxGeometry width="50" height="50" relative="1" as="geometry">
            <mxPoint x="550" y="430" as="sourcePoint"/>
            <mxPoint x="720" y="430" as="targetPoint"/>
          </mxGeometry>
        </mxCell>
        <mxCell id="iXVOBdnZFfjjihutGFz4-74" value="" style="endArrow=none;html=1;fontSize=15;strokeWidth=2;" edge="1" parent="1">
          <mxGeometry width="50" height="50" relative="1" as="geometry">
            <mxPoint x="1390" y="170" as="sourcePoint"/>
            <mxPoint x="1639.89" y="170" as="targetPoint"/>
          </mxGeometry>
        </mxCell>
        <mxCell id="iXVOBdnZFfjjihutGFz4-80" value="" style="endArrow=none;html=1;fontSize=15;exitX=0.464;exitY=-0.003;exitDx=0;exitDy=0;exitPerimeter=0;strokeWidth=2;" edge="1" parent="1" source="iXVOBdnZFfjjihutGFz4-67">
          <mxGeometry width="50" height="50" relative="1" as="geometry">
            <mxPoint x="1590" y="220" as="sourcePoint"/>
            <mxPoint x="1640" y="170" as="targetPoint"/>
          </mxGeometry>
        </mxCell>
        <mxCell id="iXVOBdnZFfjjihutGFz4-81" value="" style="endArrow=classic;html=1;fontSize=15;strokeWidth=2;" edge="1" parent="1" target="iXVOBdnZFfjjihutGFz4-52">
          <mxGeometry width="50" height="50" relative="1" as="geometry">
            <mxPoint x="1390" y="170" as="sourcePoint"/>
            <mxPoint x="1440" y="120" as="targetPoint"/>
          </mxGeometry>
        </mxCell>
        <mxCell id="iXVOBdnZFfjjihutGFz4-86" value="HCNS" style="text;html=1;align=center;verticalAlign=middle;resizable=0;points=[];autosize=1;fontFamily=Verdana;fontSize=15;direction=east;flipH=1;flipV=1;strokeWidth=2;" vertex="1" parent="1">
          <mxGeometry x="40" y="70" width="60" height="20" as="geometry"/>
        </mxCell>
        <mxCell id="iXVOBdnZFfjjihutGFz4-87" value="Kết thúc" style="ellipse;whiteSpace=wrap;html=1;fontFamily=Verdana;fontSize=15;strokeWidth=2;" vertex="1" parent="1">
          <mxGeometry x="1690" y="45" width="161.06" height="65" as="geometry"/>
        </mxCell>
        <mxCell id="iXVOBdnZFfjjihutGFz4-88" value="" style="endArrow=classic;html=1;fontSize=15;strokeWidth=2;" edge="1" parent="1">
          <mxGeometry width="50" height="50" relative="1" as="geometry">
            <mxPoint x="1770" y="280" as="sourcePoint"/>
            <mxPoint x="1770" y="110" as="targetPoint"/>
          </mxGeometry>
        </mxCell>
        <mxCell id="iXVOBdnZFfjjihutGFz4-89" value="" style="endArrow=classic;html=1;fontSize=15;strokeWidth=2;" edge="1" parent="1">
          <mxGeometry width="50" height="50" relative="1" as="geometry">
            <mxPoint x="1780" y="440" as="sourcePoint"/>
            <mxPoint x="1780" y="110" as="targetPoint"/>
          </mxGeometry>
        </mxCell>
        <mxCell id="iXVOBdnZFfjjihutGFz4-90" value="" style="endArrow=none;html=1;fontSize=15;strokeWidth=2;" edge="1" parent="1">
          <mxGeometry width="50" height="50" relative="1" as="geometry">
            <mxPoint x="1500" y="440" as="sourcePoint"/>
            <mxPoint x="1780" y="440" as="targetPoint"/>
          </mxGeometry>
        </mxCell>
        <mxCell id="iXVOBdnZFfjjihutGFz4-91" value="" style="endArrow=none;html=1;fontSize=15;strokeWidth=2;" edge="1" parent="1">
          <mxGeometry width="50" height="50" relative="1" as="geometry">
            <mxPoint x="1720" y="280" as="sourcePoint"/>
            <mxPoint x="1770" y="280" as="targetPoint"/>
          </mxGeometry>
        </mxCell>
      </root>
    </mxGraphModel>
  </diagram>
</mxfile>
